<svg width="16" height="16" viewBox="0 0 16 16" fill="none" xmlns="http://www.w3.org/2000/svg">
<path d="M9.675 1.14495C8.63851 0.546528 7.36149 0.546528 6.325 1.14495L2.90085 3.12188C1.86436 3.7203 1.22585 4.82623 1.22585 6.02307V9.97693C1.22585 11.1738 1.86436 12.2797 2.90085 12.8781L6.325 14.8551C7.36149 15.4535 8.63851 15.4535 9.675 14.8551L13.0991 12.8781C14.1356 12.2797 14.7741 11.1738 14.7741 9.97693V6.02307C14.7741 4.82623 14.1356 3.7203 13.0991 3.12188L9.675 1.14495Z" fill="#33375E" stroke="url(#paint0_linear_17398_146358)" stroke-width="0.7"/>
<path fill-rule="evenodd" clip-rule="evenodd" d="M4.7762 4.20525L6.394 4.20525C6.4605 4.20525 6.52266 4.2383 6.55985 4.29344L7.85332 6.21137C7.93277 6.32918 8.10626 6.32892 8.18531 6.21088L9.47048 4.29181C9.5076 4.23639 9.56991 4.20312 9.63663 4.20313L11.2028 4.20313C11.3664 4.20313 11.4609 4.38898 11.3643 4.52112L8.17352 8.88906C8.09397 8.99795 7.93165 8.99849 7.85134 8.89013L4.61557 4.52431C4.51775 4.39232 4.61193 4.20525 4.7762 4.20525ZM8.94665 12.4005H7.14818C7.08394 12.4005 7.02369 12.3697 6.98622 12.3176L3.04145 6.83373C2.99977 6.77579 2.99223 6.69994 3.02166 6.63475L3.71741 5.09372C3.78071 4.95351 3.97176 4.93376 4.06177 5.05812L7.84966 10.2914C7.93003 10.4024 8.09601 10.4011 8.17516 10.2888L11.878 5.03427C11.966 4.90934 12.1557 4.9248 12.2217 5.06228L12.9766 6.63451C13.0079 6.69971 13.0014 6.77683 12.9598 6.83614L9.11071 12.3152C9.07315 12.3687 9.01191 12.4005 8.94665 12.4005Z" fill="url(#paint1_linear_17398_146358)"/>
<path d="M6.394 4.20525V4.24969V4.20525ZM4.7762 4.20525V4.1608H4.7762L4.7762 4.20525ZM6.55985 4.29344L6.523 4.31829V4.3183L6.55985 4.29344ZM7.85332 6.21137L7.81647 6.23622L7.85332 6.21137ZM8.18531 6.21088L8.14838 6.18615L8.18531 6.21088ZM9.47048 4.29181L9.50741 4.31654V4.31654L9.47048 4.29181ZM9.63663 4.20313V4.24757V4.20313ZM11.2028 4.20313V4.24757V4.20313ZM11.3643 4.52112L11.3284 4.49491V4.49491L11.3643 4.52112ZM8.17352 8.88906L8.2094 8.91528H8.2094L8.17352 8.88906ZM7.85134 8.89013L7.81563 8.91659V8.9166L7.85134 8.89013ZM4.61557 4.52431L4.57987 4.55078V4.55078L4.61557 4.52431ZM6.98622 12.3176L7.0223 12.2916L6.98622 12.3176ZM3.04145 6.83373L3.00537 6.85969L3.00537 6.85969L3.04145 6.83373ZM3.02166 6.63475L3.06217 6.65304H3.06217L3.02166 6.63475ZM3.71741 5.09372L3.6769 5.07543V5.07543L3.71741 5.09372ZM4.06177 5.05812L4.02577 5.08418V5.08418L4.06177 5.05812ZM7.84966 10.2914L7.81366 10.3175L7.84966 10.2914ZM8.17516 10.2888L8.13883 10.2632L8.17516 10.2888ZM11.878 5.03427L11.8416 5.00867L11.878 5.03427ZM12.2217 5.06228L12.2618 5.04305V5.04305L12.2217 5.06228ZM12.9766 6.63451L12.9365 6.65375L12.9365 6.65375L12.9766 6.63451ZM12.9598 6.83614L12.9234 6.81059V6.81059L12.9598 6.83614ZM9.11071 12.3152L9.07434 12.2897L9.11071 12.3152ZM6.394 4.1608L4.7762 4.1608V4.24969L6.394 4.24969V4.1608ZM6.5967 4.26859C6.55125 4.2012 6.47528 4.1608 6.394 4.1608L6.394 4.24969C6.44572 4.24969 6.49408 4.2754 6.523 4.31829L6.5967 4.26859ZM7.89017 6.18652L6.5967 4.26859L6.523 4.3183L7.81647 6.23622L7.89017 6.18652ZM8.14838 6.18615C8.08691 6.27794 7.95197 6.27816 7.89017 6.18652L7.81647 6.23622C7.91357 6.38019 8.12561 6.3799 8.22224 6.23561L8.14838 6.18615ZM9.43356 4.26708L8.14838 6.18615L8.22224 6.23561L9.50741 4.31654L9.43356 4.26708ZM9.63663 4.15868C9.55509 4.15868 9.47892 4.19934 9.43356 4.26708L9.50741 4.31654C9.53628 4.27344 9.58474 4.24757 9.63663 4.24757V4.15868ZM11.2028 4.15868L9.63663 4.15868V4.24757L11.2028 4.24757V4.15868ZM11.4002 4.54734C11.5182 4.38582 11.4028 4.15868 11.2028 4.15868V4.24757C11.3301 4.24757 11.4035 4.39214 11.3284 4.49491L11.4002 4.54734ZM8.2094 8.91528L11.4002 4.54734L11.3284 4.49491L8.13763 8.86285L8.2094 8.91528ZM7.81563 8.9166C7.91378 9.04902 8.11217 9.04838 8.2094 8.91528L8.13763 8.86285C8.07577 8.94752 7.94952 8.94796 7.88704 8.86367L7.81563 8.9166ZM4.57987 4.55078L7.81563 8.91659L7.88704 8.86367L4.65128 4.49785L4.57987 4.55078ZM4.7762 4.1608C4.5754 4.1608 4.46031 4.38947 4.57987 4.55078L4.65128 4.49785C4.57518 4.39518 4.64845 4.24969 4.7762 4.24969L4.7762 4.1608ZM7.14818 12.445H8.94665V12.3561H7.14818V12.445ZM6.95014 12.3435C6.99598 12.4073 7.06966 12.445 7.14818 12.445V12.3561C7.09823 12.3561 7.05141 12.3321 7.0223 12.2916L6.95014 12.3435ZM3.00537 6.85969L6.95014 12.3435L7.0223 12.2916L3.07753 6.80778L3.00537 6.85969ZM2.98115 6.61646C2.9452 6.69609 2.95439 6.78881 3.00537 6.85969L3.07753 6.80778C3.04515 6.76277 3.03925 6.70379 3.06217 6.65304L2.98115 6.61646ZM3.6769 5.07543L2.98115 6.61646L3.06217 6.65304L3.75792 5.11201L3.6769 5.07543ZM4.09777 5.03206C3.98762 4.87987 3.75417 4.9043 3.6769 5.07543L3.75792 5.11201C3.80726 5.00273 3.9559 4.98765 4.02577 5.08418L4.09777 5.03206ZM7.88566 10.2653L4.09777 5.03206L4.02577 5.08418L7.81366 10.3175L7.88566 10.2653ZM8.13883 10.2632C8.07716 10.3507 7.94806 10.3515 7.88566 10.2653L7.81366 10.3175C7.91201 10.4533 8.11487 10.4515 8.21149 10.3144L8.13883 10.2632ZM11.8416 5.00867L8.13883 10.2632L8.21149 10.3144L11.9143 5.05987L11.8416 5.00867ZM12.2618 5.04305C12.181 4.87478 11.9491 4.85617 11.8416 5.00867L11.9143 5.05987C11.9829 4.9625 12.1304 4.97481 12.1816 5.08152L12.2618 5.04305ZM13.0166 6.61528L12.2618 5.04305L12.1816 5.08152L12.9365 6.65375L13.0166 6.61528ZM12.9961 6.86169C13.047 6.78925 13.0549 6.69501 13.0166 6.61528L12.9365 6.65375C12.9608 6.70442 12.9559 6.76441 12.9234 6.81059L12.9961 6.86169ZM9.14707 12.3408L12.9961 6.86169L12.9234 6.81059L9.07434 12.2897L9.14707 12.3408ZM8.94665 12.445C9.02641 12.445 9.10121 12.4061 9.14707 12.3408L9.07434 12.2897C9.04509 12.3313 8.99742 12.3561 8.94665 12.3561V12.445Z" fill="white"/>
<path d="M12.7206 13.5196H10.5576L10.71 12.6509L13.2652 9.61719H14.4132L13.881 12.6509H14.518L14.3656 13.5196H13.7286L13.5568 14.4986H12.5488L12.7206 13.5196ZM13.1681 10.9686H13.1541L11.76 12.6509H12.873L13.1681 10.9686Z" fill="white"/>
<path fill-rule="evenodd" clip-rule="evenodd" d="M10.6947 12.7404C10.7048 12.6827 10.7319 12.6263 10.7724 12.5781L13.1532 9.75159C13.2232 9.66841 13.3263 9.61832 13.4273 9.61832H14.1134C14.2791 9.61832 14.3902 9.75061 14.3616 9.91381L13.9331 12.3565C13.9044 12.5197 14.0155 12.652 14.1812 12.652H14.2182C14.3839 12.652 14.495 12.7843 14.4664 12.9475L14.4177 13.2252C14.389 13.3884 14.2315 13.5207 14.0658 13.5207H14.0288C13.8631 13.5207 13.7056 13.653 13.677 13.8162L13.6089 14.2043C13.5803 14.3675 13.4228 14.4998 13.2571 14.4998H12.8491C12.6834 14.4998 12.5723 14.3675 12.6009 14.2043L12.669 13.8162C12.6976 13.653 12.5865 13.5207 12.4208 13.5207H10.8578C10.6921 13.5207 10.581 13.3884 10.6097 13.2252L10.6947 12.7404ZM13.1668 10.9786C13.1677 10.9737 13.1643 10.9697 13.1593 10.9697C13.1562 10.9697 13.1531 10.9712 13.151 10.9738L12.1376 12.1966C11.9746 12.3933 12.0726 12.652 12.31 12.652H12.5732C12.7389 12.652 12.8964 12.5197 12.9251 12.3565L13.1668 10.9786ZM11.9653 14.4072C11.994 14.244 11.8828 14.1117 11.7172 14.1117H10.1542C9.98847 14.1117 9.87737 13.9794 9.906 13.8162L10.1257 12.5636C10.1358 12.506 10.1629 12.4496 10.2034 12.4014L12.9331 9.16061C13.0031 9.07743 13.1062 9.02734 13.2072 9.02734H14.8171C14.9828 9.02734 15.0939 9.15964 15.0653 9.32283L14.6367 11.7655C14.6081 11.9287 14.7192 12.061 14.8849 12.061H14.9219C15.0876 12.061 15.1987 12.1933 15.1701 12.3565L14.914 13.8162C14.8854 13.9794 14.7278 14.1117 14.5622 14.1117H14.5252C14.3595 14.1117 14.202 14.244 14.1733 14.4072L14.1052 14.7953C14.0766 14.9585 13.9191 15.0908 13.7534 15.0908H12.1454C11.9797 15.0908 11.8686 14.9585 11.8972 14.7953L11.9653 14.4072Z" fill="#33375E"/>
<defs>
<linearGradient id="paint0_linear_17398_146358" x1="8" y1="0.582031" x2="8" y2="15.418" gradientUnits="userSpaceOnUse">
<stop stop-color="#E9D7BB"/>
<stop offset="0.479167" stop-color="#FDEFBA"/>
<stop offset="1" stop-color="#ECD7B7"/>
</linearGradient>
<linearGradient id="paint1_linear_17398_146358" x1="8.00043" y1="12.4462" x2="8.00042" y2="4.20312" gradientUnits="userSpaceOnUse">
<stop stop-color="#FFD482"/>
<stop offset="1" stop-color="#FDF4C6"/>
</linearGradient>
</defs>
</svg>
