<svg width="18" height="18" viewBox="0 0 18 18" fill="none" xmlns="http://www.w3.org/2000/svg">
<path d="M11.675 1.14495C10.6385 0.546528 9.36149 0.546528 8.325 1.14495L4.90085 3.12188C3.86436 3.7203 3.22585 4.82623 3.22585 6.02307V9.97693C3.22585 11.1738 3.86436 12.2797 4.90085 12.8781L8.325 14.8551C9.36149 15.4535 10.6385 15.4535 11.675 14.8551L15.0991 12.8781C16.1356 12.2797 16.7741 11.1738 16.7741 9.97693V6.02307C16.7741 4.82623 16.1356 3.7203 15.0991 3.12188L11.675 1.14495Z" fill="#33375E" stroke="url(#paint0_linear_18255_51755)" stroke-width="0.7"/>
<g filter="url(#filter0_f_18255_51755)">
<ellipse cx="12.5411" cy="9.89798" rx="0.663167" ry="1.87299" transform="rotate(36.7056 12.5411 9.89798)" fill="#D895F0"/>
</g>
<g filter="url(#filter1_f_18255_51755)">
<ellipse cx="9.58393" cy="12.1402" rx="1.9964" ry="1.28168" transform="rotate(51.2046 9.58393 12.1402)" fill="#4F2AE6"/>
</g>
<g filter="url(#filter2_f_18255_51755)">
<ellipse cx="5.66375" cy="6.48596" rx="0.827294" ry="1.95939" transform="rotate(-39.3731 5.66375 6.48596)" fill="#3A94FE"/>
</g>
<path fill-rule="evenodd" clip-rule="evenodd" d="M6.7762 4.20525L8.394 4.20525C8.4605 4.20525 8.52266 4.2383 8.55985 4.29344L9.85332 6.21137C9.93277 6.32918 10.1063 6.32892 10.1853 6.21088L11.4705 4.29181C11.5076 4.23639 11.5699 4.20312 11.6366 4.20313L13.2028 4.20313C13.3664 4.20313 13.4609 4.38898 13.3643 4.52112L10.1735 8.88906C10.094 8.99795 9.93165 8.99849 9.85134 8.89013L6.61557 4.52431C6.51775 4.39232 6.61193 4.20525 6.7762 4.20525ZM10.9467 12.4005H9.14818C9.08394 12.4005 9.02369 12.3697 8.98622 12.3176L5.04145 6.83373C4.99977 6.77579 4.99223 6.69994 5.02166 6.63475L5.71741 5.09372C5.78071 4.95351 5.97176 4.93376 6.06177 5.05812L9.84966 10.2914C9.93003 10.4024 10.096 10.4011 10.1752 10.2888L13.878 5.03427C13.966 4.90934 14.1557 4.9248 14.2217 5.06228L14.9766 6.63451C15.0079 6.69971 15.0014 6.77683 14.9598 6.83614L11.1107 12.3152C11.0731 12.3687 11.0119 12.4005 10.9467 12.4005Z" fill="url(#paint1_linear_18255_51755)"/>
<path d="M8.394 4.20525V4.24969V4.20525ZM6.7762 4.20525V4.1608H6.7762L6.7762 4.20525ZM8.55985 4.29344L8.523 4.31829V4.3183L8.55985 4.29344ZM9.85332 6.21137L9.81647 6.23622L9.85332 6.21137ZM10.1853 6.21088L10.1484 6.18615L10.1853 6.21088ZM11.4705 4.29181L11.5074 4.31654V4.31654L11.4705 4.29181ZM11.6366 4.20313V4.24757V4.20313ZM13.2028 4.20313V4.24757V4.20313ZM13.3643 4.52112L13.3284 4.49491V4.49491L13.3643 4.52112ZM10.1735 8.88906L10.2094 8.91528H10.2094L10.1735 8.88906ZM9.85134 8.89013L9.81563 8.91659V8.9166L9.85134 8.89013ZM6.61557 4.52431L6.57987 4.55078V4.55078L6.61557 4.52431ZM8.98622 12.3176L9.0223 12.2916L8.98622 12.3176ZM5.04145 6.83373L5.00537 6.85969L5.00537 6.85969L5.04145 6.83373ZM5.02166 6.63475L5.06217 6.65304H5.06217L5.02166 6.63475ZM5.71741 5.09372L5.6769 5.07543V5.07543L5.71741 5.09372ZM6.06177 5.05812L6.02577 5.08418V5.08418L6.06177 5.05812ZM9.84966 10.2914L9.81366 10.3175L9.84966 10.2914ZM10.1752 10.2888L10.1388 10.2632L10.1752 10.2888ZM13.878 5.03427L13.8416 5.00867L13.878 5.03427ZM14.2217 5.06228L14.2618 5.04305V5.04305L14.2217 5.06228ZM14.9766 6.63451L14.9365 6.65375L14.9365 6.65375L14.9766 6.63451ZM14.9598 6.83614L14.9234 6.81059V6.81059L14.9598 6.83614ZM11.1107 12.3152L11.0743 12.2897L11.1107 12.3152ZM8.394 4.1608L6.7762 4.1608V4.24969L8.394 4.24969V4.1608ZM8.5967 4.26859C8.55125 4.2012 8.47528 4.1608 8.394 4.1608L8.394 4.24969C8.44572 4.24969 8.49408 4.2754 8.523 4.31829L8.5967 4.26859ZM9.89017 6.18652L8.5967 4.26859L8.523 4.3183L9.81647 6.23622L9.89017 6.18652ZM10.1484 6.18615C10.0869 6.27794 9.95197 6.27816 9.89017 6.18652L9.81647 6.23622C9.91357 6.38019 10.1256 6.3799 10.2222 6.23561L10.1484 6.18615ZM11.4336 4.26708L10.1484 6.18615L10.2222 6.23561L11.5074 4.31654L11.4336 4.26708ZM11.6366 4.15868C11.5551 4.15868 11.4789 4.19934 11.4336 4.26708L11.5074 4.31654C11.5363 4.27344 11.5847 4.24757 11.6366 4.24757V4.15868ZM13.2028 4.15868L11.6366 4.15868V4.24757L13.2028 4.24757V4.15868ZM13.4002 4.54734C13.5182 4.38582 13.4028 4.15868 13.2028 4.15868V4.24757C13.3301 4.24757 13.4035 4.39214 13.3284 4.49491L13.4002 4.54734ZM10.2094 8.91528L13.4002 4.54734L13.3284 4.49491L10.1376 8.86285L10.2094 8.91528ZM9.81563 8.9166C9.91378 9.04902 10.1122 9.04838 10.2094 8.91528L10.1376 8.86285C10.0758 8.94752 9.94952 8.94796 9.88704 8.86367L9.81563 8.9166ZM6.57987 4.55078L9.81563 8.91659L9.88704 8.86367L6.65128 4.49785L6.57987 4.55078ZM6.7762 4.1608C6.5754 4.1608 6.46031 4.38947 6.57987 4.55078L6.65128 4.49785C6.57518 4.39518 6.64845 4.24969 6.7762 4.24969L6.7762 4.1608ZM9.14818 12.445H10.9467V12.3561H9.14818V12.445ZM8.95014 12.3435C8.99598 12.4073 9.06966 12.445 9.14818 12.445V12.3561C9.09823 12.3561 9.05141 12.3321 9.0223 12.2916L8.95014 12.3435ZM5.00537 6.85969L8.95014 12.3435L9.0223 12.2916L5.07753 6.80778L5.00537 6.85969ZM4.98115 6.61646C4.9452 6.69609 4.95439 6.78881 5.00537 6.85969L5.07753 6.80778C5.04515 6.76277 5.03925 6.70379 5.06217 6.65304L4.98115 6.61646ZM5.6769 5.07543L4.98115 6.61646L5.06217 6.65304L5.75792 5.11201L5.6769 5.07543ZM6.09777 5.03206C5.98762 4.87987 5.75417 4.9043 5.6769 5.07543L5.75792 5.11201C5.80726 5.00273 5.9559 4.98765 6.02577 5.08418L6.09777 5.03206ZM9.88566 10.2653L6.09777 5.03206L6.02577 5.08418L9.81366 10.3175L9.88566 10.2653ZM10.1388 10.2632C10.0772 10.3507 9.94806 10.3515 9.88566 10.2653L9.81366 10.3175C9.91201 10.4533 10.1149 10.4515 10.2115 10.3144L10.1388 10.2632ZM13.8416 5.00867L10.1388 10.2632L10.2115 10.3144L13.9143 5.05987L13.8416 5.00867ZM14.2618 5.04305C14.181 4.87478 13.9491 4.85617 13.8416 5.00867L13.9143 5.05987C13.9829 4.9625 14.1304 4.97481 14.1816 5.08152L14.2618 5.04305ZM15.0166 6.61528L14.2618 5.04305L14.1816 5.08152L14.9365 6.65375L15.0166 6.61528ZM14.9961 6.86169C15.047 6.78925 15.0549 6.69501 15.0166 6.61528L14.9365 6.65375C14.9608 6.70442 14.9559 6.76441 14.9234 6.81059L14.9961 6.86169ZM11.1471 12.3408L14.9961 6.86169L14.9234 6.81059L11.0743 12.2897L11.1471 12.3408ZM10.9467 12.445C11.0264 12.445 11.1012 12.4061 11.1471 12.3408L11.0743 12.2897C11.0451 12.3313 10.9974 12.3561 10.9467 12.3561V12.445Z" fill="white"/>
<path d="M16.8564 10.5273H14.8894L14.7366 11.2788C14.8504 11.242 15.0006 11.2237 15.1873 11.2237C15.4393 11.2237 15.6638 11.2604 15.8609 11.334C16.058 11.4075 16.2187 11.5155 16.3431 11.658C16.4729 11.7959 16.5621 11.966 16.6106 12.1682C16.6599 12.3659 16.6628 12.5888 16.6192 12.837C16.5709 13.1128 16.4787 13.3587 16.3428 13.5748C16.2116 13.7908 16.0487 13.9746 15.8541 14.1263C15.6603 14.2734 15.4398 14.386 15.1928 14.4642C14.9504 14.5423 14.6939 14.5814 14.4232 14.5814C13.9939 14.5814 13.6527 14.478 13.3997 14.2711C13.1466 14.0643 13.0031 13.7517 12.9692 13.3334L14.1117 13.0852C14.1091 13.2599 14.1587 13.4024 14.2607 13.5127C14.3635 13.6184 14.5059 13.6713 14.6879 13.6713C14.9119 13.6713 15.1013 13.6023 15.2562 13.4644C15.4157 13.3265 15.514 13.1519 15.5511 12.9404C15.5793 12.7796 15.5673 12.6486 15.515 12.5474C15.4683 12.4417 15.3941 12.359 15.2926 12.2992C15.1965 12.2349 15.0829 12.1912 14.9516 12.1682C14.8203 12.1452 14.687 12.1338 14.5516 12.1338C14.379 12.1338 14.2011 12.1498 14.0182 12.182C13.8398 12.2142 13.6642 12.2579 13.4912 12.313L14.0201 9.61719H17.0161L16.8564 10.5273Z" fill="white"/>
<path fill-rule="evenodd" clip-rule="evenodd" d="M17.4213 10.7254C17.3832 10.943 17.1731 11.1194 16.9522 11.1194H16.7227C16.7597 11.1538 16.7951 11.19 16.8288 11.2282C17.0141 11.4274 17.1379 11.669 17.2041 11.9434C17.2735 12.2232 17.2737 12.5247 17.2187 12.8381C17.1585 13.1815 17.0399 13.51 16.8509 13.8121C16.6751 14.1001 16.4521 14.353 16.1825 14.5631L16.1747 14.5692C15.906 14.7731 15.6079 14.9232 15.2891 15.0242C14.9728 15.126 14.6481 15.1735 14.319 15.1735C13.7891 15.1735 13.3223 15.0444 12.9628 14.7505C12.5893 14.4453 12.4038 14.0005 12.3615 13.4794L12.3456 13.2841C12.3283 13.0698 12.501 12.853 12.7284 12.8036L12.7974 12.7886L13.4596 9.41327C13.5017 9.19886 13.7095 9.02734 13.9273 9.02734H17.3192C17.5401 9.02734 17.6883 9.20374 17.6501 9.42133L17.4213 10.7254ZM14.2602 13.5138C14.182 13.4293 14.1346 13.3259 14.1179 13.2036C14.1128 13.1663 14.1105 13.1272 14.1112 13.0864L12.9686 13.3346C12.9858 13.5462 13.031 13.7308 13.1043 13.8883C13.1758 14.0421 13.2741 14.1701 13.3991 14.2723C13.6522 14.4791 13.9934 14.5825 14.4227 14.5825C14.6934 14.5825 14.9499 14.5434 15.1922 14.4653C15.4393 14.3872 15.6597 14.2745 15.8535 14.1275C16.0481 13.9758 16.211 13.7919 16.3423 13.5759C16.4782 13.3599 16.5703 13.1139 16.6187 12.8381C16.6622 12.5899 16.6593 12.367 16.61 12.1694C16.5615 11.9671 16.4723 11.797 16.3425 11.6592C16.2182 11.5167 16.0575 11.4086 15.8604 11.3351C15.7059 11.2775 15.5346 11.2424 15.3464 11.23C15.2945 11.2265 15.2412 11.2248 15.1867 11.2248C15.0001 11.2248 14.8498 11.2432 14.736 11.2799L14.8889 10.5284H16.8559L17.0155 9.61832H14.0195L13.4906 12.3142C13.6636 12.259 13.8393 12.2153 14.0176 12.1832C14.0518 12.1771 14.0858 12.1717 14.1197 12.1668C14.2669 12.1455 14.4107 12.1349 14.5511 12.1349C14.6864 12.1349 14.8197 12.1464 14.951 12.1694C15.0823 12.1923 15.196 12.236 15.292 12.3004C15.3936 12.3601 15.4677 12.4429 15.5145 12.5486C15.5668 12.6497 15.5788 12.7807 15.5506 12.9416C15.5135 13.153 15.4152 13.3277 15.2556 13.4656C15.1008 13.6035 14.9113 13.6724 14.6873 13.6724C14.5053 13.6724 14.3629 13.6196 14.2602 13.5138Z" fill="#33375E"/>
<defs>
<filter id="filter0_f_18255_51755" x="7.74523" y="4.78819" width="9.59158" height="10.2205" filterUnits="userSpaceOnUse" color-interpolation-filters="sRGB">
<feFlood flood-opacity="0" result="BackgroundImageFix"/>
<feBlend mode="normal" in="SourceGraphic" in2="BackgroundImageFix" result="shape"/>
<feGaussianBlur stdDeviation="1.77778" result="effect1_foregroundBlur_18255_51755"/>
</filter>
<filter id="filter1_f_18255_51755" x="4.42882" y="6.83507" width="10.3103" height="10.6111" filterUnits="userSpaceOnUse" color-interpolation-filters="sRGB">
<feFlood flood-opacity="0" result="BackgroundImageFix"/>
<feBlend mode="normal" in="SourceGraphic" in2="BackgroundImageFix" result="shape"/>
<feGaussianBlur stdDeviation="1.77778" result="effect1_foregroundBlur_18255_51755"/>
</filter>
<filter id="filter2_f_18255_51755" x="0.710069" y="1.32726" width="9.90799" height="10.3181" filterUnits="userSpaceOnUse" color-interpolation-filters="sRGB">
<feFlood flood-opacity="0" result="BackgroundImageFix"/>
<feBlend mode="normal" in="SourceGraphic" in2="BackgroundImageFix" result="shape"/>
<feGaussianBlur stdDeviation="1.77778" result="effect1_foregroundBlur_18255_51755"/>
</filter>
<linearGradient id="paint0_linear_18255_51755" x1="10" y1="0.582031" x2="10" y2="15.418" gradientUnits="userSpaceOnUse">
<stop stop-color="#BAE0F9"/>
<stop offset="0.338542" stop-color="#F5DAFF"/>
<stop offset="0.697917" stop-color="#C2C5FF"/>
<stop offset="1" stop-color="#E1FFFF"/>
</linearGradient>
<linearGradient id="paint1_linear_18255_51755" x1="10.0004" y1="12.4462" x2="10.0004" y2="4.44618" gradientUnits="userSpaceOnUse">
<stop stop-color="#B8B1FF"/>
<stop offset="0.342492" stop-color="#FBCFFF"/>
<stop offset="1" stop-color="#BAEEFF"/>
</linearGradient>
</defs>
</svg>
