<svg width="32" height="32" viewBox="0 0 32 32" fill="none" xmlns="http://www.w3.org/2000/svg">
<circle cx="16" cy="16" r="15.25" stroke="white" stroke-width="1.5"/>
<path fill-rule="evenodd" clip-rule="evenodd" d="M10.5302 10.5303C10.8231 10.2374 11.298 10.2374 11.5909 10.5303L21.8439 20.7834C22.1368 21.0763 22.1368 21.5511 21.8439 21.844C21.551 22.1369 21.0762 22.1369 20.7833 21.844L10.5302 11.591C10.2373 11.2981 10.2373 10.8232 10.5302 10.5303Z" fill="white"/>
<path fill-rule="evenodd" clip-rule="evenodd" d="M21.5303 10.5303C21.2374 10.2374 20.7626 10.2374 20.4697 10.5303L10.2166 20.7834C9.92373 21.0763 9.92373 21.5511 10.2166 21.844C10.5095 22.1369 10.9844 22.1369 11.2773 21.844L21.5303 11.591C21.8232 11.2981 21.8232 10.8232 21.5303 10.5303Z" fill="white"/>
</svg>
