<svg width="40" height="16" viewBox="0 0 40 16" fill="none" xmlns="http://www.w3.org/2000/svg">
<path d="M13.7456 4.49268C14.1186 3.94954 14.7353 3.625 15.3942 3.625H37.2641C38.2964 3.625 39.0201 4.64339 38.6807 5.61824L36.3422 12.3346C36.0623 13.1384 35.3044 13.677 34.4534 13.677H7.43745L13.7456 4.49268Z" fill="url(#paint0_linear_15615_115619)"/>
<path d="M17.0253 11.6001C16.3701 11.6001 15.8689 11.4741 15.5217 11.2221C15.1801 10.9701 15.0093 10.5921 15.0093 10.0881C15.0093 10.0153 15.0149 9.93409 15.0261 9.84449C15.0373 9.74929 15.0569 9.63169 15.0849 9.49169H16.5213C16.4989 9.60369 16.4849 9.69329 16.4793 9.76049C16.4737 9.82769 16.4709 9.88089 16.4709 9.92009C16.4709 10.0937 16.5185 10.2225 16.6137 10.3065C16.7145 10.3849 16.8713 10.4241 17.0841 10.4241C17.3249 10.4241 17.5237 10.3485 17.6805 10.1973C17.8429 10.0461 17.9521 9.81369 18.0081 9.50009L18.6717 5.72852H20.1753L19.5117 9.53369C19.4277 10.0153 19.2737 10.4101 19.0497 10.7181C18.8313 11.0205 18.5513 11.2445 18.2097 11.3901C17.8681 11.5301 17.4733 11.6001 17.0253 11.6001Z" fill="#4B2878"/>
<path d="M22.1147 11.4993L22.5179 9.21449L20.8715 5.72852H22.4927L23.4587 7.8957H23.5007L25.189 5.72852H26.8774L24.0215 9.21449L23.6183 11.4993H22.1147Z" fill="#4B2878"/>
<path d="M26.5366 11.4993L26.7886 10.0965H28.2418L27.9898 11.4993H26.5366Z" fill="#4B2878"/>
<path d="M31.3696 11.6001C30.916 11.6001 30.5296 11.5385 30.2104 11.4153C29.8968 11.2865 29.656 11.1045 29.488 10.8693C29.32 10.6341 29.236 10.3569 29.236 10.0377C29.236 9.98169 29.2388 9.92289 29.2444 9.86129C29.25 9.79409 29.2584 9.72969 29.2696 9.66809H30.5548C30.5492 9.70729 30.5436 9.74369 30.538 9.77729C30.538 9.81089 30.538 9.84449 30.538 9.87809C30.538 10.0181 30.566 10.1413 30.622 10.2477C30.6836 10.3541 30.7704 10.4381 30.8824 10.4997C31 10.5557 31.1428 10.5837 31.3108 10.5837C31.4676 10.5837 31.6132 10.5585 31.7476 10.5081C31.882 10.4521 31.9996 10.3709 32.1004 10.2645C32.2068 10.1581 32.288 10.0321 32.344 9.88649C32.4056 9.73529 32.4364 9.56729 32.4364 9.38249C32.4364 9.15289 32.372 8.97369 32.2432 8.8449C32.1144 8.7161 31.9296 8.6517 31.6888 8.6517C31.5264 8.6517 31.3836 8.6769 31.2604 8.7273C31.1428 8.7777 31.042 8.8365 30.958 8.9037C30.8796 8.97089 30.8124 9.03529 30.7564 9.09689L29.6224 8.94569L30.4288 5.72852H34.1164L33.9064 6.92971H31.3024L31.0252 8.0469C31.0924 8.0021 31.1764 7.9517 31.2772 7.8957C31.378 7.8397 31.504 7.7921 31.6552 7.7529C31.8064 7.7137 31.9828 7.6941 32.1844 7.6941C32.5148 7.6941 32.8032 7.7529 33.0496 7.8705C33.296 7.9881 33.4864 8.1645 33.6208 8.3997C33.7608 8.6293 33.8308 8.90929 33.8308 9.23969C33.8308 9.72129 33.7216 10.1385 33.5032 10.4913C33.2848 10.8441 32.988 11.1185 32.6128 11.3145C32.2432 11.5049 31.8288 11.6001 31.3696 11.6001Z" fill="#4B2878"/>
<path d="M7.53862 3.69241V1L10.0515 2.61545L7.53862 3.69241Z" fill="url(#paint1_linear_15615_115619)"/>
<path d="M7.53862 3.69241V1L5.0257 2.61545L7.53862 3.69241Z" fill="url(#paint2_linear_15615_115619)"/>
<path d="M11.0567 3.1543L7.53862 4.76975V6.92368L12.5645 4.23126L11.0567 3.1543Z" fill="url(#paint3_linear_15615_115619)"/>
<path d="M4.02053 3.1543L7.53862 4.76975V6.92368L2.51278 4.23126L4.02053 3.1543Z" fill="url(#paint4_linear_15615_115619)"/>
<path d="M7.53876 8.00043L1.50775 4.76953L0 5.8465L7.53876 10.1544V8.00043Z" fill="url(#paint5_linear_15615_115619)"/>
<path d="M7.53848 8.00043L13.5695 4.76953L15.0772 5.8465L7.53848 10.1544V8.00043Z" fill="url(#paint6_linear_15615_115619)"/>
<path d="M7.53876 14.9999V10.1536L0 5.8457L7.53876 14.9999Z" fill="url(#paint7_linear_15615_115619)"/>
<path d="M7.53848 14.9999V10.1536L15.0772 5.8457L7.53848 14.9999Z" fill="url(#paint8_linear_15615_115619)"/>
<defs>
<linearGradient id="paint0_linear_15615_115619" x1="23.6245" y1="14.5624" x2="15.3121" y2="3.625" gradientUnits="userSpaceOnUse">
<stop stop-color="#C5AAFF"/>
<stop offset="0.291667" stop-color="#D4C0FF"/>
<stop offset="1" stop-color="#F0E9FF"/>
</linearGradient>
<linearGradient id="paint1_linear_15615_115619" x1="7.16168" y1="3.26163" x2="9.2139" y2="1.83764" gradientUnits="userSpaceOnUse">
<stop stop-color="#9F65FF"/>
<stop offset="1" stop-color="#DAC4FF"/>
</linearGradient>
<linearGradient id="paint2_linear_15615_115619" x1="7.53862" y1="2.25646" x2="5.86334" y2="1.83764" gradientUnits="userSpaceOnUse">
<stop stop-color="#B384FF"/>
<stop offset="1" stop-color="#DFCBFF"/>
</linearGradient>
<linearGradient id="paint3_linear_15615_115619" x1="7.53862" y1="5.60668" x2="11.7268" y2="3.51258" gradientUnits="userSpaceOnUse">
<stop stop-color="#8D57FF"/>
<stop offset="1" stop-color="#CB98FF"/>
</linearGradient>
<linearGradient id="paint4_linear_15615_115619" x1="3.35042" y1="3.51258" x2="7.53862" y2="5.60668" gradientUnits="userSpaceOnUse">
<stop stop-color="#C2A6FF"/>
<stop offset="1" stop-color="#AE88FF"/>
</linearGradient>
<linearGradient id="paint5_linear_15615_115619" x1="0.83764" y1="5.60717" x2="7.53876" y2="8.95773" gradientUnits="userSpaceOnUse">
<stop stop-color="#B486FF"/>
<stop offset="1" stop-color="#A269FF"/>
</linearGradient>
<linearGradient id="paint6_linear_15615_115619" x1="7.53848" y1="8.95773" x2="14.2396" y2="5.18835" gradientUnits="userSpaceOnUse">
<stop stop-color="#853AFF"/>
<stop offset="1" stop-color="#E3D2FF"/>
</linearGradient>
<linearGradient id="paint7_linear_15615_115619" x1="5.02584" y1="8.85311" x2="7.53876" y2="14.1931" gradientUnits="userSpaceOnUse">
<stop stop-color="#8D47FF"/>
<stop offset="1" stop-color="#DFCBFF"/>
</linearGradient>
<linearGradient id="paint8_linear_15615_115619" x1="10.4702" y1="11.4703" x2="8.66929" y2="9.66956" gradientUnits="userSpaceOnUse">
<stop stop-color="#D9C7FF"/>
<stop offset="1" stop-color="#783FF0"/>
</linearGradient>
</defs>
</svg>
