<svg width="16" height="16" viewBox="0 0 16 16" fill="none" xmlns="http://www.w3.org/2000/svg">
<path d="M9.675 1.14495C8.63851 0.546528 7.36149 0.546528 6.325 1.14495L2.90085 3.12188C1.86436 3.7203 1.22585 4.82623 1.22585 6.02307V9.97693C1.22585 11.1738 1.86436 12.2797 2.90085 12.8781L6.325 14.8551C7.36149 15.4535 8.63851 15.4535 9.675 14.8551L13.0991 12.8781C14.1356 12.2797 14.7741 11.1738 14.7741 9.97693V6.02307C14.7741 4.82623 14.1356 3.7203 13.0991 3.12188L9.675 1.14495Z" fill="#33375E" stroke="url(#paint0_linear_17398_146344)" stroke-width="0.7"/>
<path fill-rule="evenodd" clip-rule="evenodd" d="M4.7762 4.20525L6.394 4.20525C6.4605 4.20525 6.52266 4.2383 6.55985 4.29344L7.85332 6.21137C7.93277 6.32918 8.10626 6.32892 8.18531 6.21088L9.47048 4.29181C9.5076 4.23639 9.56991 4.20312 9.63663 4.20313L11.2028 4.20313C11.3664 4.20313 11.4609 4.38898 11.3643 4.52112L8.17352 8.88906C8.09397 8.99795 7.93165 8.99849 7.85134 8.89013L4.61557 4.52431C4.51775 4.39232 4.61193 4.20525 4.7762 4.20525ZM8.94665 12.4005H7.14818C7.08394 12.4005 7.02369 12.3697 6.98622 12.3176L3.04145 6.83373C2.99977 6.77579 2.99223 6.69994 3.02166 6.63475L3.71741 5.09372C3.78071 4.95351 3.97176 4.93376 4.06177 5.05812L7.84966 10.2914C7.93003 10.4024 8.09601 10.4011 8.17516 10.2888L11.878 5.03427C11.966 4.90934 12.1557 4.9248 12.2217 5.06228L12.9766 6.63451C13.0079 6.69971 13.0014 6.77683 12.9598 6.83614L9.11071 12.3152C9.07315 12.3687 9.01191 12.4005 8.94665 12.4005Z" fill="url(#paint1_linear_17398_146344)"/>
<path d="M6.394 4.20525V4.24969V4.20525ZM4.7762 4.20525V4.1608H4.7762L4.7762 4.20525ZM6.55985 4.29344L6.523 4.31829V4.3183L6.55985 4.29344ZM7.85332 6.21137L7.81647 6.23622L7.85332 6.21137ZM8.18531 6.21088L8.14838 6.18615L8.18531 6.21088ZM9.47048 4.29181L9.50741 4.31654V4.31654L9.47048 4.29181ZM9.63663 4.20313V4.24757V4.20313ZM11.2028 4.20313V4.24757V4.20313ZM11.3643 4.52112L11.3284 4.49491V4.49491L11.3643 4.52112ZM8.17352 8.88906L8.2094 8.91528H8.2094L8.17352 8.88906ZM7.85134 8.89013L7.81563 8.91659V8.9166L7.85134 8.89013ZM4.61557 4.52431L4.57987 4.55078V4.55078L4.61557 4.52431ZM6.98622 12.3176L7.0223 12.2916L6.98622 12.3176ZM3.04145 6.83373L3.00537 6.85969L3.00537 6.85969L3.04145 6.83373ZM3.02166 6.63475L3.06217 6.65304H3.06217L3.02166 6.63475ZM3.71741 5.09372L3.6769 5.07543V5.07543L3.71741 5.09372ZM4.06177 5.05812L4.02577 5.08418V5.08418L4.06177 5.05812ZM7.84966 10.2914L7.81366 10.3175L7.84966 10.2914ZM8.17516 10.2888L8.13883 10.2632L8.17516 10.2888ZM11.878 5.03427L11.8416 5.00867L11.878 5.03427ZM12.2217 5.06228L12.2618 5.04305V5.04305L12.2217 5.06228ZM12.9766 6.63451L12.9365 6.65375L12.9365 6.65375L12.9766 6.63451ZM12.9598 6.83614L12.9234 6.81059V6.81059L12.9598 6.83614ZM9.11071 12.3152L9.07434 12.2897L9.11071 12.3152ZM6.394 4.1608L4.7762 4.1608V4.24969L6.394 4.24969V4.1608ZM6.5967 4.26859C6.55125 4.2012 6.47528 4.1608 6.394 4.1608L6.394 4.24969C6.44572 4.24969 6.49408 4.2754 6.523 4.31829L6.5967 4.26859ZM7.89017 6.18652L6.5967 4.26859L6.523 4.3183L7.81647 6.23622L7.89017 6.18652ZM8.14838 6.18615C8.08691 6.27794 7.95197 6.27816 7.89017 6.18652L7.81647 6.23622C7.91357 6.38019 8.12561 6.3799 8.22224 6.23561L8.14838 6.18615ZM9.43356 4.26708L8.14838 6.18615L8.22224 6.23561L9.50741 4.31654L9.43356 4.26708ZM9.63663 4.15868C9.55509 4.15868 9.47892 4.19934 9.43356 4.26708L9.50741 4.31654C9.53628 4.27344 9.58474 4.24757 9.63663 4.24757V4.15868ZM11.2028 4.15868L9.63663 4.15868V4.24757L11.2028 4.24757V4.15868ZM11.4002 4.54734C11.5182 4.38582 11.4028 4.15868 11.2028 4.15868V4.24757C11.3301 4.24757 11.4035 4.39214 11.3284 4.49491L11.4002 4.54734ZM8.2094 8.91528L11.4002 4.54734L11.3284 4.49491L8.13763 8.86285L8.2094 8.91528ZM7.81563 8.9166C7.91378 9.04902 8.11217 9.04838 8.2094 8.91528L8.13763 8.86285C8.07577 8.94752 7.94952 8.94796 7.88704 8.86367L7.81563 8.9166ZM4.57987 4.55078L7.81563 8.91659L7.88704 8.86367L4.65128 4.49785L4.57987 4.55078ZM4.7762 4.1608C4.5754 4.1608 4.46031 4.38947 4.57987 4.55078L4.65128 4.49785C4.57518 4.39518 4.64845 4.24969 4.7762 4.24969L4.7762 4.1608ZM7.14818 12.445H8.94665V12.3561H7.14818V12.445ZM6.95014 12.3435C6.99598 12.4073 7.06966 12.445 7.14818 12.445V12.3561C7.09823 12.3561 7.05141 12.3321 7.0223 12.2916L6.95014 12.3435ZM3.00537 6.85969L6.95014 12.3435L7.0223 12.2916L3.07753 6.80778L3.00537 6.85969ZM2.98115 6.61646C2.9452 6.69609 2.95439 6.78881 3.00537 6.85969L3.07753 6.80778C3.04515 6.76277 3.03925 6.70379 3.06217 6.65304L2.98115 6.61646ZM3.6769 5.07543L2.98115 6.61646L3.06217 6.65304L3.75792 5.11201L3.6769 5.07543ZM4.09777 5.03206C3.98762 4.87987 3.75417 4.9043 3.6769 5.07543L3.75792 5.11201C3.80726 5.00273 3.9559 4.98765 4.02577 5.08418L4.09777 5.03206ZM7.88566 10.2653L4.09777 5.03206L4.02577 5.08418L7.81366 10.3175L7.88566 10.2653ZM8.13883 10.2632C8.07716 10.3507 7.94806 10.3515 7.88566 10.2653L7.81366 10.3175C7.91201 10.4533 8.11487 10.4515 8.21149 10.3144L8.13883 10.2632ZM11.8416 5.00867L8.13883 10.2632L8.21149 10.3144L11.9143 5.05987L11.8416 5.00867ZM12.2618 5.04305C12.181 4.87478 11.9491 4.85617 11.8416 5.00867L11.9143 5.05987C11.9829 4.9625 12.1304 4.97481 12.1816 5.08152L12.2618 5.04305ZM13.0166 6.61528L12.2618 5.04305L12.1816 5.08152L12.9365 6.65375L13.0166 6.61528ZM12.9961 6.86169C13.047 6.78925 13.0549 6.69501 13.0166 6.61528L12.9365 6.65375C12.9608 6.70442 12.9559 6.76441 12.9234 6.81059L12.9961 6.86169ZM9.14707 12.3408L12.9961 6.86169L12.9234 6.81059L9.07434 12.2897L9.14707 12.3408ZM8.94665 12.445C9.02641 12.445 9.10121 12.4061 9.14707 12.3408L9.07434 12.2897C9.04509 12.3313 8.99742 12.3561 8.94665 12.3561V12.445Z" fill="white"/>
<path d="M12.6118 11.5415H12.9548C13.0528 11.5415 13.1497 11.5346 13.2454 11.5208C13.3412 11.507 13.4296 11.4818 13.5107 11.445C13.5973 11.4036 13.67 11.3485 13.7288 11.2795C13.7883 11.206 13.8282 11.1117 13.8484 10.9968C13.8742 10.8497 13.8349 10.7279 13.7305 10.6314C13.6307 10.5349 13.4945 10.4866 13.3219 10.4866C13.1585 10.4866 13.0155 10.5303 12.8929 10.6176C12.7702 10.705 12.6813 10.813 12.626 10.9417L11.5122 10.7073C11.6053 10.4958 11.7207 10.3166 11.8585 10.1695C11.9971 10.0178 12.1515 9.89598 12.3216 9.80405C12.4917 9.71212 12.6738 9.64547 12.8677 9.6041C13.0671 9.55814 13.2718 9.53516 13.4818 9.53516C13.7011 9.53516 13.9063 9.56274 14.0973 9.61789C14.2937 9.66845 14.4589 9.75119 14.5927 9.8661C14.7274 9.97642 14.8241 10.1166 14.8829 10.2867C14.9464 10.4567 14.9576 10.659 14.9165 10.8934C14.8689 11.1646 14.7559 11.3967 14.5773 11.5898C14.3988 11.7828 14.167 11.9069 13.882 11.9621L13.8784 11.9828C14.0245 12.0012 14.1475 12.0448 14.2474 12.1138C14.352 12.1827 14.4351 12.2678 14.4967 12.3689C14.5583 12.47 14.5988 12.5849 14.6182 12.7136C14.6376 12.8423 14.6348 12.9779 14.6098 13.1204C14.5671 13.364 14.4806 13.5778 14.3503 13.7616C14.2248 13.9455 14.0694 14.0995 13.8843 14.2236C13.7047 14.3431 13.5 14.4327 13.2701 14.4925C13.045 14.5522 12.8111 14.5821 12.5684 14.5821C12.1251 14.5821 11.7602 14.481 11.4736 14.2787C11.1918 14.0765 11.0378 13.757 11.0118 13.3204L12.1625 13.0652C12.1692 13.2399 12.2197 13.3778 12.3139 13.4789C12.4129 13.5801 12.5743 13.6306 12.7983 13.6306C13.027 13.6306 13.2051 13.5732 13.3326 13.4582C13.4655 13.3387 13.5481 13.1871 13.5804 13.0032C13.6046 12.8653 13.5928 12.7596 13.545 12.686C13.5027 12.6079 13.4382 12.5504 13.3513 12.5137C13.2644 12.4769 13.163 12.4562 13.0472 12.4516C12.9321 12.4424 12.8162 12.4378 12.6996 12.4378H12.4546L12.6118 11.5415Z" fill="white"/>
<path fill-rule="evenodd" clip-rule="evenodd" d="M12.9858 11.5424C12.9751 11.5426 12.9643 11.5426 12.9535 11.5426H12.8105C12.7001 11.5426 12.595 11.6308 12.576 11.7396L12.4878 12.242C12.4687 12.3508 12.5428 12.439 12.6533 12.439H12.6983C12.7156 12.439 12.733 12.4391 12.7503 12.4393C12.8494 12.4404 12.9479 12.4449 13.0459 12.4528C13.0975 12.4548 13.1462 12.46 13.1921 12.4685C13.2492 12.479 13.3018 12.4944 13.35 12.5148C13.3615 12.5197 13.3726 12.5249 13.3833 12.5305C13.4536 12.5672 13.507 12.6194 13.5437 12.6872C13.5915 12.7607 13.6033 12.8664 13.5791 13.0043C13.5468 13.1882 13.4642 13.3399 13.3313 13.4594C13.2038 13.5743 13.0257 13.6317 12.797 13.6317C12.573 13.6317 12.4116 13.5812 12.3126 13.4801C12.227 13.3881 12.1775 13.2659 12.1641 13.1132C12.1619 13.0876 12.1389 13.0713 12.1118 13.0773L11.0222 13.3189C11.0157 13.3203 11.0108 13.3265 11.0112 13.3326C11.0247 13.5407 11.0675 13.7219 11.1396 13.8762C11.2169 14.0416 11.3278 14.1761 11.4723 14.2799C11.7589 14.4821 12.1238 14.5832 12.5671 14.5832C12.8098 14.5832 13.0437 14.5533 13.2688 14.4936C13.4987 14.4338 13.7034 14.3442 13.883 14.2247C14.0681 14.1006 14.2235 13.9466 14.349 13.7627C14.4793 13.5789 14.5658 13.3652 14.6085 13.1215C14.6335 12.979 14.6363 12.8435 14.6169 12.7148C14.5975 12.586 14.557 12.4711 14.4954 12.37C14.4895 12.3603 14.4834 12.3508 14.4771 12.3414C14.4177 12.2527 14.3407 12.1773 14.2461 12.1149C14.1472 12.0466 14.0256 12.0032 13.8814 11.9845C13.8789 11.9841 13.8774 11.982 13.8779 11.9796L13.8803 11.9659C13.8805 11.9644 13.8819 11.963 13.8835 11.9627C14.1673 11.9073 14.3981 11.7833 14.576 11.5909C14.5811 11.5855 14.5861 11.58 14.591 11.5745C14.7609 11.3847 14.869 11.1581 14.9152 10.8945C14.9563 10.6601 14.9451 10.4579 14.8816 10.2878C14.8228 10.1177 14.7261 9.97755 14.5914 9.86723C14.4576 9.75232 14.2924 9.66959 14.096 9.61902C13.905 9.56387 13.6998 9.53629 13.4805 9.53629C13.2705 9.53629 13.0658 9.55927 12.8664 9.60523C12.6725 9.6466 12.4904 9.71325 12.3203 9.80518C12.1549 9.89456 12.0044 10.0122 11.8688 10.158C11.8649 10.1622 11.8611 10.1664 11.8572 10.1706C11.7646 10.2695 11.6821 10.3829 11.6096 10.5108C11.55 10.6161 11.6017 10.7275 11.7099 10.7503L12.4436 10.9047C12.5448 10.926 12.6568 10.859 12.7294 10.7695C12.7746 10.7138 12.8287 10.6636 12.8916 10.6188C13.0142 10.5314 13.1572 10.4878 13.3206 10.4878C13.4932 10.4878 13.6294 10.536 13.7292 10.6325C13.8336 10.7291 13.8729 10.8509 13.8471 10.998C13.8269 11.1129 13.787 11.2071 13.7275 11.2807C13.6687 11.3496 13.596 11.4048 13.5094 11.4461C13.5007 11.4501 13.4919 11.4539 13.483 11.4576C13.4444 11.4736 13.4041 11.4871 13.3623 11.4981C13.3243 11.5082 13.2849 11.5161 13.2441 11.522C13.1589 11.5342 13.0728 11.541 12.9858 11.5424ZM11.4361 9.81956C11.2326 10.0376 11.0756 10.2887 10.9565 10.5592L10.7797 10.9608C10.7316 11.0699 10.7821 11.1807 10.8903 11.2034L11.8741 11.4105C11.9637 11.4294 12.0162 11.51 11.9998 11.6034L11.8602 12.3996C11.8441 12.4911 11.7662 12.5706 11.6721 12.5914L10.5704 12.8357C10.4587 12.8605 10.3734 12.9661 10.3797 13.0719L10.4025 13.4548C10.4356 14.0085 10.6384 14.474 11.0593 14.776L11.0623 14.7781C11.4477 15.0501 11.9246 15.1742 12.4634 15.1742C12.7559 15.1742 13.0456 15.1382 13.3305 15.0627C13.6266 14.9856 13.9079 14.8653 14.1651 14.6941L14.1674 14.6926C14.4329 14.5146 14.6571 14.2925 14.8358 14.0322C15.0335 13.7514 15.1523 13.4423 15.2085 13.1215C15.2437 12.921 15.2485 12.7241 15.2198 12.5339C15.1911 12.3438 15.13 12.1671 15.0335 12.0087C15.0215 11.9889 15.009 11.9696 14.996 11.9507C14.9943 11.9482 14.9948 11.9445 14.9972 11.9419C15.2818 11.6342 15.4485 11.2749 15.5152 10.8945C15.5695 10.5848 15.5608 10.2839 15.4609 10.0124C15.3745 9.76577 15.2311 9.55682 15.0323 9.39271C14.84 9.22872 14.6092 9.11549 14.3497 9.04768C14.1084 8.97878 13.8524 8.94531 13.5842 8.94531C13.3312 8.94531 13.0796 8.97283 12.8303 9.02985C12.5767 9.08447 12.3314 9.17364 12.098 9.29978C11.8497 9.43397 11.6286 9.60962 11.4361 9.81956ZM12.8761 13.0404C12.8575 13.0398 12.8417 13.0386 12.8285 13.0372C12.8444 13.0381 12.8602 13.0392 12.8761 13.0404Z" fill="#33375E"/>
<defs>
<linearGradient id="paint0_linear_17398_146344" x1="8" y1="0.582031" x2="8" y2="15.418" gradientUnits="userSpaceOnUse">
<stop stop-color="#E5E7ED"/>
<stop offset="0.421875" stop-color="#EFF1F5"/>
<stop offset="1" stop-color="#D4D8DB"/>
</linearGradient>
<linearGradient id="paint1_linear_17398_146344" x1="8.00042" y1="15.1128" x2="8.00042" y2="4.20312" gradientUnits="userSpaceOnUse">
<stop stop-color="#C2CFDA"/>
<stop offset="1" stop-color="#FDFEFE"/>
</linearGradient>
</defs>
</svg>
